<svg width="1512" height="982" viewBox="0 0 1512 982" fill="none" xmlns="http://www.w3.org/2000/svg">
<g clip-path="url(#clip0_152_2364)">
<g filter="url(#filter0_f_152_2364)">
<path d="M640.722 540.5C640.722 680.78 186.003 842.5 45.7223 842.5C-94.5581 842.5 132.722 680.78 132.722 540.5C132.722 400.22 118.942 99 259.222 99C399.503 99 640.722 400.22 640.722 540.5Z" fill="url(#paint0_linear_152_2364)" fill-opacity="0.3"/>
</g>
<g filter="url(#filter1_f_152_2364)">
<path d="M1662.45 842.695C1621.52 1000.96 1648.71 1339.06 1490.44 1298.13C1332.17 1257.2 1045.59 627.878 1086.52 469.609C1127.45 311.34 1291.72 441.079 1449.99 482.01C1608.26 522.942 1703.38 684.425 1662.45 842.695Z" fill="url(#paint1_linear_152_2364)" fill-opacity="0.3"/>
</g>
<g filter="url(#filter2_f_152_2364)">
<circle cx="730" cy="1085" r="296" fill="url(#paint2_linear_152_2364)" fill-opacity="0.6"/>
</g>
</g>
<defs>
<filter id="filter0_f_152_2364" x="-300" y="-201" width="1240.72" height="1343.5" filterUnits="userSpaceOnUse" color-interpolation-filters="sRGB">
<feFlood flood-opacity="0" result="BackgroundImageFix"/>
<feBlend mode="normal" in="SourceGraphic" in2="BackgroundImageFix" result="shape"/>
<feGaussianBlur stdDeviation="150" result="effect1_foregroundBlur_152_2364"/>
</filter>
<filter id="filter1_f_152_2364" x="682.561" y="-6.9248" width="1389.39" height="1708.47" filterUnits="userSpaceOnUse" color-interpolation-filters="sRGB">
<feFlood flood-opacity="0" result="BackgroundImageFix"/>
<feBlend mode="normal" in="SourceGraphic" in2="BackgroundImageFix" result="shape"/>
<feGaussianBlur stdDeviation="200" result="effect1_foregroundBlur_152_2364"/>
</filter>
<filter id="filter2_f_152_2364" x="34" y="389" width="1392" height="1392" filterUnits="userSpaceOnUse" color-interpolation-filters="sRGB">
<feFlood flood-opacity="0" result="BackgroundImageFix"/>
<feBlend mode="normal" in="SourceGraphic" in2="BackgroundImageFix" result="shape"/>
<feGaussianBlur stdDeviation="200" result="effect1_foregroundBlur_152_2364"/>
</filter>
<linearGradient id="paint0_linear_152_2364" x1="553.223" y1="351" x2="265.223" y2="756" gradientUnits="userSpaceOnUse">
<stop stop-color="#B693E2"/>
<stop offset="1" stop-color="#00B6E0"/>
</linearGradient>
<linearGradient id="paint1_linear_152_2364" x1="1608.38" y1="600.441" x2="1139.63" y2="949.184" gradientUnits="userSpaceOnUse">
<stop stop-color="#007F9B"/>
<stop offset="1" stop-color="#00229B"/>
</linearGradient>
<linearGradient id="paint2_linear_152_2364" x1="730" y1="789" x2="730" y2="1085" gradientUnits="userSpaceOnUse">
<stop stop-color="#EE9CA7"/>
<stop offset="1" stop-color="#FFDDE1"/>
</linearGradient>
<clipPath id="clip0_152_2364">
<rect width="1512" height="982" fill="white"/>
</clipPath>
</defs>
</svg>
