<svg width="243" height="106" viewBox="0 0 243 106" fill="none" xmlns="http://www.w3.org/2000/svg">
<path d="M219.878 48C219.878 54.4612 216.874 60.6565 211.36 66.3355C205.844 72.0168 197.838 77.1559 187.905 81.4827C168.041 90.1356 140.565 95.5 110.189 95.5C79.8133 95.5 52.337 90.1356 32.4734 81.4827C22.5408 77.1559 14.5342 72.0168 9.01794 66.3355C3.50391 60.6565 0.5 54.4612 0.5 48C0.5 41.5388 3.50391 35.3435 9.01794 29.6645C14.5342 23.9832 22.5408 18.8441 32.4734 14.5173C52.337 5.86438 79.8133 0.5 110.189 0.5C140.565 0.5 168.041 5.86438 187.905 14.5173C197.838 18.8441 205.844 23.9832 211.36 29.6645C216.874 35.3435 219.878 41.5388 219.878 48Z" stroke="#FAFAFA"/>
<path d="M242.5 58C242.5 64.4612 239.496 70.6565 233.982 76.3355C228.466 82.0168 220.459 87.1559 210.527 91.4827C190.663 100.136 163.187 105.5 132.811 105.5C102.435 105.5 74.9586 100.136 55.095 91.4827C45.1624 87.1559 37.1559 82.0168 31.6396 76.3355C26.1255 70.6565 23.1216 64.4612 23.1216 58C23.1216 51.5388 26.1255 45.3435 31.6396 39.6645C37.1559 33.9832 45.1624 28.8441 55.095 24.5173C74.9586 15.8644 102.435 10.5 132.811 10.5C163.187 10.5 190.663 15.8644 210.527 24.5173C220.459 28.8441 228.466 33.9832 233.982 39.6645C239.496 45.3435 242.5 51.5388 242.5 58Z" stroke="#FAFAFA"/>
</svg>
