<svg width="48" height="48" viewBox="0 0 48 48" fill="none" xmlns="http://www.w3.org/2000/svg">
<path d="M26.042 0V48.0005C31.5328 47.4352 36.6925 44.9991 40.6309 41.0607C45.1556 36.536 47.6975 30.3992 47.6975 24.0003C47.6975 17.6014 45.1556 11.4645 40.6309 6.93982C36.6925 3.00147 31.5328 0.565272 26.042 0Z" fill="#18181B"/>
<path d="M10.5167 4.25535C9.57121 4.89534 8.66785 5.6047 7.81464 6.38013L21.5696 20.1351V15.3083L10.5167 4.25535Z" fill="#18181B"/>
<path d="M21.5696 8.31763V0.235352C19.3329 0.465616 17.1512 1.00633 15.0846 1.83257L21.5696 8.31763Z" fill="#18181B"/>
<path d="M2.66478 13.0477C3.20582 12.0139 3.82268 11.0177 4.51178 10.0679L21.5696 27.1257V31.9526L2.66478 13.0477Z" fill="#18181B"/>
<path d="M21.5696 38.9432L0.711205 18.0848C0.357238 19.4272 0.118166 20.8039 0 22.2004L21.5696 43.7701V38.9432Z" fill="#18181B"/>
<path d="M6.98074 41.2961C3.77757 38.0929 1.56808 34.0818 0.550674 29.7417L18.5351 47.7261C14.195 46.7087 10.1839 44.4992 6.98074 41.2961Z" fill="#18181B"/>
</svg>
