<svg width="80" height="80" viewBox="0 0 80 80" fill="none" xmlns="http://www.w3.org/2000/svg">
<rect width="79.9993" height="80" rx="39.9997" fill="url(#paint0_linear_771_2652)"/>
<path d="M42.7222 8V72C50.0432 71.2463 56.9228 67.9981 62.1739 62.747C68.2067 56.7141 71.596 48.5318 71.596 40C71.596 31.4682 68.2067 23.2859 62.1739 17.253C56.9228 12.0019 50.0432 8.75369 42.7222 8Z" fill="#18181B"/>
<path d="M22.0221 13.6738C20.7615 14.5271 19.557 15.4729 18.4194 16.5068L36.7592 34.8466V28.4108L22.0221 13.6738Z" fill="#18181B"/>
<path d="M36.7592 19.0901V8.31384C33.777 8.62086 30.868 9.3418 28.1125 10.4434L36.7592 19.0901Z" fill="#18181B"/>
<path d="M11.553 25.3968C12.2744 24.0184 13.0969 22.6902 14.0156 21.4237L36.7592 44.1673V50.603L11.553 25.3968Z" fill="#18181B"/>
<path d="M36.7592 59.9238L8.94826 32.1128C8.47631 33.9027 8.15755 35.7383 8 37.6003L36.7592 66.3595V59.9238Z" fill="#18181B"/>
<path d="M17.3076 63.0609C13.0367 58.79 10.0908 53.4419 8.73422 47.6553L32.7132 71.6342C26.9265 70.2777 21.5784 67.3317 17.3076 63.0609Z" fill="#18181B"/>
<defs>
<linearGradient id="paint0_linear_771_2652" x1="-3.25752e-07" y1="40.2499" x2="79.9993" y2="40.2499" gradientUnits="userSpaceOnUse">
<stop stop-color="#E3E5ED"/>
<stop offset="1" stop-color="#B0B6C4"/>
</linearGradient>
</defs>
</svg>
